<?xml version="1.0" encoding="UTF-8"?>
<svg version="1.1" xmlns="http://www.w3.org/2000/svg" width="95" height="26">
<path d="M0 0 C3.4375 0.9375 3.4375 0.9375 4.6640625 2.70703125 C5.54366533 5.24366366 5.55656065 6.90564102 5.25 9.5625 C5.17394531 10.33851562 5.09789062 11.11453125 5.01953125 11.9140625 C4.4375 13.9375 4.4375 13.9375 1.4375 15.9375 C-4.00694444 15.49305556 -4.00694444 15.49305556 -6.5625 12.9375 C-6.86328125 10.66015625 -6.86328125 10.66015625 -6.875 8 C-6.89175781 7.12472656 -6.90851562 6.24945312 -6.92578125 5.34765625 C-6.5625 2.9375 -6.5625 2.9375 -5.265625 1.1171875 C-3.5625 -0.0625 -3.5625 -0.0625 0 0 Z M-1.5625 2.9375 C-3.86912599 4.82409875 -3.86912599 4.82409875 -3.875 7.9375 C-3.771875 8.9275 -3.66875 9.9175 -3.5625 10.9375 C-2.0775 11.9275 -2.0775 11.9275 -0.5625 12.9375 C0.0975 12.6075 0.7575 12.2775 1.4375 11.9375 C1.4375 9.2975 1.4375 6.6575 1.4375 3.9375 C0.4475 3.6075 -0.5425 3.2775 -1.5625 2.9375 Z " fill="#212121" transform="translate(57.5625,5.0625)"/>
<path d="M0 0 C3.625 0.375 3.625 0.375 7 1 C7.33 2.32 7.66 3.64 8 5 C6.68 5 5.36 5 4 5 C4 4.34 4 3.68 4 3 C3.34 3.66 2.68 4.32 2 5 C3.98 5.99 5.96 6.98 8 8 C8.1875 10.875 8.1875 10.875 8 14 C4.76746204 16.15502531 3.74849077 16.46856135 0 16 C-1.8125 14.6875 -1.8125 14.6875 -3 13 C-3 12.01 -3 11.02 -3 10 C-1.68 10 -0.36 10 1 10 C1.33 10.66 1.66 11.32 2 12 C2.66 11.67 3.32 11.34 4 11 C3.01 10.443125 2.02 9.88625 1 9.3125 C-2 7 -2 7 -2.5 4.375 C-2 2 -2 2 0 0 Z " fill="#212121" transform="translate(22,5)"/>
<path d="M0 0 C3.625 0.375 3.625 0.375 7 1 C7.33 2.32 7.66 3.64 8 5 C6.68 5 5.36 5 4 5 C4 4.34 4 3.68 4 3 C3.34 3.66 2.68 4.32 2 5 C2.99 5.556875 3.98 6.11375 5 6.6875 C8 9 8 9 8.5625 11.625 C8 14 8 14 5 16 C2.05749309 16.36781336 0.61801347 16.44752699 -1.8125 14.6875 C-3 13 -3 13 -3 10 C-1.68 10 -0.36 10 1 10 C1.33 10.66 1.66 11.32 2 12 C2.66 11.67 3.32 11.34 4 11 C3.01 10.443125 2.02 9.88625 1 9.3125 C-2 7 -2 7 -2.5 4.375 C-2 2 -2 2 0 0 Z " fill="#212121" transform="translate(86,5)"/>
<path d="M0 0 C7 0 7 0 10 2 C10.3125 5 10.3125 5 10 8 C8 10 8 10 5.375 10.125 C4.59125 10.08375 3.8075 10.0425 3 10 C3 11.98 3 13.96 3 16 C2.01 16 1.02 16 0 16 C0 10.72 0 5.44 0 0 Z M3 4 C3 4.99 3 5.98 3 7 C4.32 6.67 5.64 6.34 7 6 C7 5.34 7 4.68 7 4 C5.68 4 4.36 4 3 4 Z " fill="#212121" transform="translate(36,5)"/>
<path d="M0 0 C3.63 0 7.26 0 11 0 C11 1.32 11 2.64 11 4 C9.68 4 8.36 4 7 4 C7 7.96 7 11.92 7 16 C6.01 16 5.02 16 4 16 C4 12.04 4 8.08 4 4 C2.68 3.67 1.36 3.34 0 3 C0 2.01 0 1.02 0 0 Z " fill="#212121" transform="translate(67,5)"/>
<path d="M0 0 C0.99 0 1.98 0 3 0 C3 1.65 3 3.3 3 5 C4.32 4.67 5.64 4.34 7 4 C7 5.32 7 6.64 7 8 C4 10 4 10 0.9375 9.875 C-2 9 -2 9 -3.375 6.9375 C-3.58125 6.298125 -3.7875 5.65875 -4 5 C-3.01 4.67 -2.02 4.34 -1 4 C-0.26676204 1.98491642 -0.26676204 1.98491642 0 0 Z " fill="#202020" transform="translate(4,4)"/>
<path d="M0 0 C1.32 0 2.64 0 4 0 C4 1.32 4 2.64 4 4 C2.35 3.67 0.7 3.34 -1 3 C-0.67 2.01 -0.34 1.02 0 0 Z " fill="#202020" transform="translate(4,16)"/>
</svg>
