<?xml version="1.0" encoding="UTF-8"?>
<svg version="1.1" xmlns="http://www.w3.org/2000/svg" width="23" height="20">
<path d="M0 0 C2.16756792 0 4.33553575 -0.07154656 6.5 -0.1875 C10 -0 10 -0 11.9375 1.0625 C13.6284361 4.14597171 13.33774082 6.53906447 13 10 C10.953125 12.90625 10.953125 12.90625 8.25 15.5 C7.36828125 16.3765625 6.4865625 17.253125 5.578125 18.15625 C3 20 3 20 0.96875 20.0390625 C-3.50444562 17.67820926 -6.9309372 13.96420612 -10 10 C-10.74203948 6.16612935 -10.7966865 4.45278126 -8.9375 1.0625 C-5.9744384 -0.56240475 -3.31725548 -0.17771011 0 0 Z M-4 2 C-5.32 3.32 -6.64 4.64 -8 6 C-5.84085222 9.9773775 -3.49778933 13.09939422 0 16 C2.82735836 15.8336848 3.87186511 15.12318659 5.921875 13.15234375 C6.52515625 12.42144531 7.1284375 11.69054687 7.75 10.9375 C8.36359375 10.20402344 8.9771875 9.47054688 9.609375 8.71484375 C10.06828125 8.14894531 10.5271875 7.58304687 11 7 C10.20882096 5.00016466 10.20882096 5.00016466 9 3 C8.01 2.67 7.02 2.34 6 2 C3.32323453 3.37249963 3.32323453 3.37249963 1 5 C-0.65 4.01 -2.3 3.02 -4 2 Z " fill="#212121" transform="translate(10,0)"/>
</svg>
